<svg xmlns="http://www.w3.org/2000/svg" viewBox="0 0 512 512">
  <defs>
    <linearGradient id="bg" x1="40" y1="40" x2="472" y2="472" gradientUnits="userSpaceOnUse">
      <stop offset="0" stop-color="#1b2029"/>
      <stop offset="1" stop-color="#080a0f"/>
    </linearGradient>
    <radialGradient id="glow" cx="0.38" cy="0.7" r="0.36">
      <stop offset="0" stop-color="#ff4a24" stop-opacity=".95"/>
      <stop offset="1" stop-color="#ff4a24" stop-opacity="0"/>
    </radialGradient>
    <linearGradient id="metal" x1="126" y1="360" x2="394" y2="112" gradientUnits="userSpaceOnUse">
      <stop offset="0" stop-color="#a6afbe"/>
      <stop offset=".4" stop-color="#eef3f9"/>
      <stop offset="1" stop-color="#c8cfdb"/>
    </linearGradient>
  </defs>
  <rect x="28" y="28" width="456" height="456" rx="78" fill="url(#bg)"/>
  <rect x="28" y="28" width="456" height="456" rx="78" fill="none" stroke="#ffffff" stroke-opacity=".14" stroke-width="2"/>
  <ellipse cx="194" cy="355" rx="140" ry="105" fill="url(#glow)"/>
  <ellipse cx="163" cy="114" rx="75" ry="36" fill="#ffffff" fill-opacity=".11"/>
  <g opacity=".32" fill="none" stroke="#000" stroke-linecap="round" stroke-linejoin="round">
    <line x1="168" y1="354" x2="283" y2="233" stroke-width="86"/>
    <circle cx="336" cy="162" r="78" stroke-width="72"/>
  </g>
  <g fill="none" stroke="url(#metal)" stroke-linecap="round" stroke-linejoin="round">
    <line x1="160" y1="346" x2="276" y2="224" stroke-width="72"/>
    <circle cx="330" cy="156" r="80" stroke-width="58"/>
  </g>
  <polygon points="340,86 470,122 470,208 338,186" fill="#0d1016"/>
  <circle cx="134" cy="316" r="26" fill="#0d1016"/>
  <g fill="none" stroke="#ffffff" stroke-opacity=".5" stroke-linecap="round" stroke-linejoin="round">
    <line x1="184" y1="310" x2="252" y2="240" stroke-width="15"/>
    <path d="M274 190a56 56 0 0 1 75-75" stroke-width="15"/>
  </g>
</svg>
