<svg width="1200" height="280" viewBox="0 0 1200 280" fill="none" xmlns="http://www.w3.org/2000/svg" role="img" aria-labelledby="logoTitle logoDesc">
  <title id="logoTitle">SK Motor Services UK</title>
  <desc id="logoDesc">Professional SK Motor Services UK logo with red and metallic monogram.</desc>
  <defs>
    <linearGradient id="sRed" x1="120" y1="24" x2="290" y2="205" gradientUnits="userSpaceOnUse">
      <stop stop-color="#ff6f6f"/>
      <stop offset="0.55" stop-color="#d62828"/>
      <stop offset="1" stop-color="#8f1111"/>
    </linearGradient>
    <linearGradient id="kMetal" x1="234" y1="24" x2="415" y2="221" gradientUnits="userSpaceOnUse">
      <stop stop-color="#f0f3f8"/>
      <stop offset="0.5" stop-color="#a4adba"/>
      <stop offset="1" stop-color="#4e5661"/>
    </linearGradient>
    <linearGradient id="bladeRed" x1="100" y1="203" x2="580" y2="238" gradientUnits="userSpaceOnUse">
      <stop stop-color="#6f0f0f"/>
      <stop offset="0.35" stop-color="#cb2323"/>
      <stop offset="1" stop-color="#f05b5b"/>
    </linearGradient>
    <pattern id="checker" width="18" height="18" patternUnits="userSpaceOnUse">
      <rect width="9" height="9" fill="#141a24"/>
      <rect x="9" width="9" height="9" fill="#2a3240"/>
      <rect y="9" width="9" height="9" fill="#2a3240"/>
      <rect x="9" y="9" width="9" height="9" fill="#141a24"/>
    </pattern>
    <filter id="shadow" x="0" y="0" width="1200" height="280" filterUnits="userSpaceOnUse" color-interpolation-filters="sRGB">
      <feDropShadow dx="0" dy="8" stdDeviation="6" flood-color="#000" flood-opacity="0.25"/>
    </filter>
  </defs>
  <g filter="url(#shadow)">
    <rect x="14" y="24" width="28" height="206" rx="6" fill="url(#checker)" opacity="0.9"/>
    <path d="M70 191C93 213 133 226 177 226C223 226 268 210 287 183C307 157 290 130 245 120L163 101C139 95 129 87 129 76C129 57 151 44 185 44C215 44 241 53 268 72L288 43C259 16 221 4 178 4C103 4 54 38 54 82C54 121 84 146 140 156L218 172C240 176 248 186 238 197C227 210 202 216 176 216C139 216 109 202 85 179L70 191Z" fill="url(#sRed)"/>
    <path d="M360 20H299L245 102V20H193V228H245V148L303 228H365L294 132L360 20Z" fill="url(#kMetal)"/>
    <path d="M205 205C282 233 388 235 510 207L503 184C386 212 284 210 209 184L205 205Z" fill="url(#bladeRed)"/>
    <path d="M176 222C276 257 405 257 541 220L537 211C405 244 274 244 178 211L176 222Z" fill="#8f1111"/>
  </g>
  <g transform="translate(408 32)">
    <text x="0" y="90" fill="#f5f7fb" font-family="Rajdhani, 'Segoe UI', Arial, sans-serif" font-size="98" font-weight="700" letter-spacing="2">MOTORS</text>
    <text x="2" y="156" fill="#c8ced8" font-family="Barlow, 'Segoe UI', Arial, sans-serif" font-size="42" font-weight="600" letter-spacing="3">MOBILE MECHANIC</text>
  </g>
  <g transform="translate(943 31) rotate(8)">
    <rect x="0" y="0" width="24" height="24" fill="#f5f7fb"/>
    <rect x="24" y="0" width="24" height="24" fill="#1a202a"/>
    <rect x="48" y="0" width="24" height="24" fill="#f5f7fb"/>
    <rect x="12" y="24" width="24" height="24" fill="#1a202a"/>
    <rect x="36" y="24" width="24" height="24" fill="#f5f7fb"/>
    <rect x="60" y="24" width="24" height="24" fill="#1a202a"/>
  </g>
</svg>
